<?xml version="1.0" encoding="UTF-8"?>
<svg id="Layer_2" data-name="Layer 2" xmlns="http://www.w3.org/2000/svg" viewBox="0 0 300 100.13">
  <defs>
    <style>
      .cls-1 {
        fill-rule: evenodd;
      }

      .cls-1, .cls-2, .cls-3 {
        stroke-width: 0px;
      }

      .cls-1, .cls-3 {
        fill: #fff;
      }

      .cls-2 {
        fill: #1bb1a9;
      }
    </style>
  </defs>
  <g id="Layer_2-2" data-name="Layer 2">
    <g id="Layer_1-2" data-name="Layer 1-2">
      <g>
        <circle class="cls-2" cx="36" cy="36" r="36"/>
        <polygon class="cls-1" points="30.98 20.1 38.25 20.1 25.5 51.97 18.23 51.97 30.98 20.1"/>
        <polygon class="cls-1" points="46.5 20.1 53.78 20.1 41.02 51.97 33.68 51.97 46.5 20.1"/>
        <polygon class="cls-3" points="162.22 9.98 123.82 9.98 123.82 15.97 140.02 15.97 140.02 62.1 146.03 62.1 146.03 15.97 162.22 15.97 162.22 9.98"/>
        <polygon class="cls-3" points="300 15.97 300 9.98 266.85 9.98 266.85 62.1 300 62.1 300 56.1 272.85 56.1 272.85 38.7 289.42 38.7 289.42 32.7 272.85 32.7 272.85 15.97 300 15.97"/>
        <path class="cls-3" d="M252.82,62.1h7.58l-15.45-20.25c7.58-1.27,13.35-7.88,13.35-15.82,0-8.85-7.2-16.05-16.05-16.05h-20.1v52.12h6v-20.02h9.45l15.23,20.02h0ZM228.08,15.97h14.1c5.55,0,10.05,4.5,10.05,10.05s-4.5,10.05-10.05,10.05h-14.1V15.98h0Z"/>
        <path class="cls-3" d="M189.23,63.15c-14.25,0-25.8-12.15-25.8-27.15s11.55-27.15,25.8-27.15,25.8,12.15,25.8,27.15-11.63,27.15-25.8,27.15h0ZM189.23,14.93c-10.95,0-19.8,9.45-19.8,21.15s8.85,21.15,19.8,21.15,19.8-9.45,19.8-21.15-8.92-21.15-19.8-21.15Z"/>
        <path class="cls-3" d="M101.63,63.15c-9.98,0-18.08-6.83-18.08-15.23h6c0,5.02,5.4,9.22,12.07,9.22s12.07-4.2,12.07-9.22c0-3.15-1.35-6.75-12.07-9-11.63-2.33-17.62-7.35-17.62-15.08,0-8.4,7.73-14.93,17.55-14.93s17.55,6.53,17.55,14.93h-6c0-4.95-5.1-8.92-11.55-8.92s-11.55,3.97-11.55,8.92c0,1.65,0,6.6,12.67,9.22,7.28,1.5,17.02,4.65,17.02,14.85,0,8.4-8.1,15.23-18.08,15.23h0Z"/>
      </g>
      <g>
        <path class="cls-3" d="M101.99,100.12c-1.44,0-2.78-.24-4-.73s-2.3-1.18-3.21-2.08c-.91-.9-1.62-1.94-2.12-3.13-.5-1.19-.75-2.49-.75-3.9s.25-2.7.75-3.9,1.21-2.24,2.12-3.13,1.99-1.59,3.21-2.08,2.57-.73,4-.73,2.78.25,4,.73c1.23.49,2.3,1.18,3.2,2.06.91.89,1.61,1.93,2.12,3.12.51,1.19.76,2.5.76,3.92s-.25,2.73-.76,3.92c-.51,1.19-1.21,2.23-2.12,3.12-.91.89-1.97,1.58-3.2,2.06-1.23.49-2.56.73-4,.73h0ZM101.99,98.82c1.24,0,2.38-.21,3.44-.64,1.05-.42,1.97-1.03,2.75-1.8.78-.78,1.38-1.68,1.82-2.72s.65-2.16.65-3.38-.22-2.37-.65-3.39c-.43-1.03-1.04-1.93-1.82-2.7s-1.69-1.37-2.75-1.8c-1.05-.43-2.2-.64-3.44-.64s-2.38.21-3.44.64c-1.05.43-1.97,1.03-2.76,1.8-.79.78-1.4,1.68-1.83,2.7-.43,1.03-.65,2.16-.65,3.39s.22,2.35.65,3.38,1.05,1.94,1.83,2.72c.79.78,1.7,1.38,2.76,1.8,1.05.43,2.2.64,3.44.64Z"/>
        <path class="cls-3" d="M119.37,99.98l-5.49-14.47h1.33l5.1,13.69h-.58l5.24-13.69h1.19l5.21,13.69h-.61l5.19-13.69h1.27l-5.49,14.47h-1.3l-5.1-13.14h.44l-5.13,13.14h-1.27,0Z"/>
        <path class="cls-3" d="M147.5,85.4c1.18,0,2.21.22,3.09.68.88.45,1.56,1.14,2.05,2.05.49.91.73,2.05.73,3.39v8.46h-1.39v-8.34c0-1.63-.41-2.86-1.23-3.71-.82-.85-1.97-1.27-3.45-1.27-1.13,0-2.11.23-2.94.69-.83.46-1.46,1.11-1.9,1.94-.43.83-.65,1.83-.65,2.99v7.71h-1.39v-14.47h1.33v4.02l-.19-.44c.44-1.15,1.17-2.05,2.19-2.7,1.02-.66,2.26-.99,3.74-.99h0Z"/>
        <path class="cls-3" d="M168.12,99.98v-18.13h-6.99v-1.27h15.39v1.27h-6.99v18.13h-1.41Z"/>
        <path class="cls-3" d="M186.64,85.4c1.18,0,2.21.22,3.09.68.88.45,1.56,1.14,2.05,2.05.49.91.73,2.05.73,3.39v8.46h-1.39v-8.34c0-1.63-.41-2.86-1.23-3.71-.82-.85-1.97-1.27-3.45-1.27-1.13,0-2.11.23-2.94.69-.83.46-1.46,1.11-1.9,1.94-.43.83-.65,1.83-.65,2.99v7.71h-1.39v-20.57h1.39v10.12l-.25-.44c.44-1.15,1.17-2.05,2.19-2.7,1.02-.66,2.26-.99,3.74-.99h0Z"/>
        <path class="cls-3" d="M204.1,100.09c-1.46,0-2.75-.31-3.87-.94s-2-1.5-2.63-2.61c-.64-1.11-.96-2.38-.96-3.8s.3-2.71.9-3.81c.6-1.1,1.43-1.96,2.48-2.59s2.24-.94,3.55-.94,2.49.3,3.53.91c1.05.61,1.87,1.46,2.47,2.57.6,1.1.9,2.37.9,3.81,0,.06,0,.12-.01.18-.01.06-.01.13-.01.21h-12.78v-1.08h12.03l-.55.53c.02-1.13-.22-2.14-.71-3.03s-1.15-1.6-1.98-2.11c-.83-.51-1.79-.76-2.88-.76s-2.03.25-2.87.76c-.84.51-1.5,1.21-1.98,2.11-.48.9-.72,1.92-.72,3.06v.25c0,1.18.26,2.23.79,3.15s1.25,1.63,2.18,2.14c.93.51,1.98.76,3.16.76.93,0,1.79-.16,2.59-.5s1.48-.84,2.04-1.52l.81.91c-.63.78-1.42,1.36-2.37,1.76-.95.4-1.98.6-3.09.6h0Z"/>
        <path class="cls-3" d="M232.05,100.12c-1.44,0-2.78-.24-4-.73s-2.3-1.18-3.2-2.06c-.91-.89-1.61-1.93-2.11-3.12-.5-1.19-.75-2.5-.75-3.92s.25-2.73.75-3.92c.5-1.19,1.21-2.23,2.12-3.12.91-.89,1.98-1.57,3.2-2.06s2.55-.73,3.99-.73c1.37,0,2.65.22,3.84.67,1.19.44,2.21,1.12,3.06,2.02l-.89.91c-.83-.81-1.75-1.4-2.76-1.76-1.01-.36-2.08-.54-3.2-.54-1.24,0-2.39.21-3.45.64-1.06.43-1.99,1.03-2.77,1.8-.79.78-1.4,1.68-1.83,2.72-.43,1.03-.65,2.16-.65,3.38s.22,2.35.65,3.38,1.05,1.94,1.83,2.72c.79.78,1.71,1.38,2.77,1.8,1.06.43,2.21.64,3.45.64,1.13,0,2.2-.18,3.2-.54s1.93-.96,2.76-1.79l.89.91c-.85.91-1.87,1.58-3.06,2.04-1.19.45-2.47.68-3.84.68h0Z"/>
        <path class="cls-3" d="M243.25,99.98v-20.57h1.39v20.57h-1.39Z"/>
        <path class="cls-3" d="M256.14,100.09c-1.39,0-2.62-.31-3.7-.94s-1.94-1.5-2.58-2.61c-.64-1.11-.96-2.38-.96-3.8s.32-2.71.96-3.81,1.5-1.96,2.58-2.59c1.08-.63,2.32-.94,3.7-.94s2.62.31,3.71.94c1.09.63,1.95,1.49,2.58,2.59.63,1.1.94,2.37.94,3.81s-.31,2.69-.94,3.8c-.63,1.11-1.49,1.98-2.58,2.61-1.09.63-2.33.94-3.71.94ZM256.14,98.85c1.11,0,2.11-.25,2.99-.76.89-.51,1.58-1.23,2.08-2.15s.75-1.99.75-3.19-.25-2.29-.75-3.2-1.19-1.63-2.08-2.14-1.88-.76-2.99-.76-2.1.25-2.98.76c-.88.51-1.57,1.22-2.08,2.14-.51.91-.76,1.98-.76,3.2s.25,2.26.76,3.19c.51.93,1.2,1.64,2.08,2.15.88.51,1.87.76,2.98.76Z"/>
        <path class="cls-3" d="M273.55,100.09c-1.24,0-2.31-.23-3.21-.68-.91-.45-1.6-1.14-2.09-2.05-.49-.91-.73-2.05-.73-3.39v-8.46h1.39v8.34c0,1.63.42,2.87,1.25,3.71.83.85,2,1.27,3.52,1.27,1.09,0,2.03-.23,2.83-.69.79-.46,1.4-1.11,1.83-1.96.43-.84.64-1.83.64-2.98v-7.71h1.39v14.47h-1.33v-4.02l.19.47c-.43,1.13-1.13,2.02-2.12,2.67s-2.17.99-3.53.99h0Z"/>
        <path class="cls-3" d="M291.79,100.09c-1.35,0-2.57-.31-3.65-.93-1.08-.62-1.94-1.48-2.57-2.59-.63-1.11-.94-2.38-.94-3.83s.31-2.74.94-3.84c.63-1.1,1.48-1.96,2.57-2.58,1.08-.62,2.3-.93,3.65-.93,1.27,0,2.42.3,3.45.89,1.03.59,1.84,1.43,2.44,2.52.6,1.09.9,2.4.9,3.94s-.3,2.8-.89,3.91-1.4,1.96-2.42,2.55c-1.03.59-2.18.89-3.48.89h0ZM291.87,98.85c1.11,0,2.1-.25,2.98-.76.88-.51,1.57-1.23,2.08-2.15s.76-1.99.76-3.19-.25-2.29-.76-3.2c-.51-.91-1.2-1.63-2.08-2.14-.88-.51-1.87-.76-2.98-.76s-2.1.25-2.98.76c-.88.51-1.57,1.22-2.08,2.14-.51.91-.76,1.98-.76,3.2s.25,2.26.76,3.19c.51.93,1.2,1.64,2.08,2.15.88.51,1.87.76,2.98.76ZM297.72,99.98v-4.74l.25-2.52-.28-2.52v-10.78h1.39v20.57h-1.36Z"/>
      </g>
    </g>
  </g>
</svg>