<?xml version="1.0" encoding="UTF-8"?>
<svg id="Layer_2" data-name="Layer 2" xmlns="http://www.w3.org/2000/svg" viewBox="0 0 300 72">
  <defs>
    <style>
      .cls-1 {
        fill-rule: evenodd;
      }

      .cls-1, .cls-2, .cls-3 {
        stroke-width: 0px;
      }

      .cls-1, .cls-3 {
        fill: #fff;
      }

      .cls-2 {
        fill: #1bb1a9;
      }
    </style>
  </defs>
  <g id="Layer_2-2" data-name="Layer 2">
    <g id="Layer_2-2" data-name="Layer 2-2">
      <g id="Layer_1-2" data-name="Layer 1-2">
        <g>
          <circle class="cls-2" cx="36" cy="36" r="36"/>
          <polygon class="cls-1" points="30.98 20.1 38.25 20.1 25.5 51.97 18.23 51.97 30.98 20.1"/>
          <polygon class="cls-1" points="46.5 20.1 53.78 20.1 41.02 51.97 33.68 51.97 46.5 20.1"/>
          <polygon class="cls-3" points="162.22 9.98 123.82 9.98 123.82 15.97 140.02 15.97 140.02 62.1 146.03 62.1 146.03 15.97 162.22 15.97 162.22 9.98"/>
          <polygon class="cls-3" points="300 15.97 300 9.98 266.85 9.98 266.85 62.1 300 62.1 300 56.1 272.85 56.1 272.85 38.7 289.42 38.7 289.42 32.7 272.85 32.7 272.85 15.97 300 15.97"/>
          <path class="cls-3" d="M252.82,62.1h7.58l-15.45-20.25c7.58-1.27,13.35-7.88,13.35-15.82,0-8.85-7.2-16.05-16.05-16.05h-20.1v52.12h6v-20.02h9.45l15.23,20.02h0ZM228.08,15.97h14.1c5.55,0,10.05,4.5,10.05,10.05s-4.5,10.05-10.05,10.05h-14.1V15.98h0Z"/>
          <path class="cls-3" d="M189.23,63.15c-14.25,0-25.8-12.15-25.8-27.15s11.55-27.15,25.8-27.15,25.8,12.15,25.8,27.15-11.63,27.15-25.8,27.15h0ZM189.23,14.93c-10.95,0-19.8,9.45-19.8,21.15s8.85,21.15,19.8,21.15,19.8-9.45,19.8-21.15-8.92-21.15-19.8-21.15Z"/>
          <path class="cls-3" d="M101.63,63.15c-9.98,0-18.08-6.83-18.08-15.23h6c0,5.02,5.4,9.22,12.07,9.22s12.07-4.2,12.07-9.22c0-3.15-1.35-6.75-12.07-9-11.63-2.33-17.62-7.35-17.62-15.08,0-8.4,7.73-14.93,17.55-14.93s17.55,6.53,17.55,14.93h-6c0-4.95-5.1-8.92-11.55-8.92s-11.55,3.97-11.55,8.92c0,1.65,0,6.6,12.67,9.22,7.28,1.5,17.02,4.65,17.02,14.85,0,8.4-8.1,15.23-18.08,15.23h.02Z"/>
        </g>
      </g>
    </g>
  </g>
</svg>